<svg width="23" height="14" viewBox="0 0 23 14" fill="none" xmlns="http://www.w3.org/2000/svg">
<path d="M2.4165 1C2.4165 0.585786 2.08072 0.25 1.6665 0.25C1.25229 0.25 0.916504 0.585786 0.916504 1V13C0.916504 13.4142 1.25229 13.75 1.6665 13.75C2.08072 13.75 2.4165 13.4142 2.4165 13V11.75H20.8085V13.0002C20.8085 13.4144 21.1443 13.7502 21.5585 13.7502C21.9728 13.7502 22.3085 13.4144 22.3085 13.0002V11.0001L22.3094 10.643C22.3094 8.64804 22.3094 7.65057 22.0288 6.84871C21.5262 5.41248 20.397 4.28325 18.9608 3.78069C18.1589 3.50011 17.1614 3.50011 15.1665 3.50011H15.1642C14.3666 3.50011 13.3264 3.50011 13.0059 3.61223C12.4315 3.81326 11.9798 4.26495 11.7787 4.83944C11.6665 5.16019 11.6665 5.55917 11.6665 6.35714V10.25H2.4165V1Z" fill="#454545"/>
<path d="M6.6665 8.5C8.04722 8.5 9.1665 7.38071 9.1665 6C9.1665 4.61929 8.04722 3.5 6.6665 3.5C5.28579 3.5 4.1665 4.61929 4.1665 6C4.1665 7.38071 5.28579 8.5 6.6665 8.5Z" fill="#454545"/>
</svg>
