<svg width="240" height="69" viewBox="0 0 240 69" fill="none" xmlns="http://www.w3.org/2000/svg">
<path d="M37.6657 30.766C33.4519 26.5522 28.915 23.1588 24.4899 20.7473C25.7826 22.9226 27.3612 25.1849 29.2133 27.472C31.2767 29.1501 33.3525 31.0146 35.391 33.0531C47.6968 45.3588 54.0361 59.0567 48.0324 65.0604C46.6651 66.4277 44.6514 66.7509 42.9609 66.0548C43.657 65.3339 43.657 64.1903 42.9485 63.4818C42.2275 62.7609 41.0591 62.7609 40.3506 63.4818C39.6297 64.2028 39.6297 65.3712 40.3506 66.0797C40.363 66.0921 40.3879 66.1045 40.4003 66.117C40.4127 66.1294 40.4127 66.1294 40.4127 66.1418C42.8117 68.5408 46.7148 68.5408 49.1138 66.1418C55.7017 59.5291 50.5805 43.6683 37.6657 30.766Z" fill="white"/>
<path d="M10.9909 25.421C10.2699 24.7001 9.10151 24.7001 8.393 25.421C7.69691 26.1171 7.68448 27.2483 8.35571 27.9692C6.69008 28.628 4.71371 28.2924 3.37126 26.9375C1.56891 25.1351 1.56891 22.2017 3.37126 20.3869C6.3669 17.3912 11.2892 17.4658 16.9946 19.84C16.659 18.9698 16.3607 18.1246 16.1121 17.2794C10.3445 15.738 5.33521 16.285 2.28985 19.3179C-0.109149 21.7169 -0.109149 25.6199 2.28985 28.0189C4.68885 30.4179 8.59188 30.4179 10.9909 28.0189C11.7118 27.3104 11.7118 26.142 10.9909 25.421Z" fill="white"/>
<path d="M57.8272 42.6242C58.5481 43.3451 59.7166 43.3451 60.4251 42.6242C61.1212 41.9281 61.1336 40.797 60.4624 40.0761C62.128 39.4173 64.1044 39.7529 65.4468 41.1077C67.2492 42.9101 67.2492 45.8436 65.4468 47.6584C62.4512 50.654 57.5289 50.5794 51.8235 48.2053C52.1591 49.0754 52.4574 49.9206 52.706 50.7659C58.4736 52.3072 63.4829 51.7603 66.5282 48.7274C68.9272 46.3284 68.9272 42.4253 66.5282 40.0263C64.1292 37.6273 60.2262 37.6273 57.8272 40.0263C57.1063 40.7348 57.1063 41.9033 57.8272 42.6242Z" fill="white"/>
<path d="M39.6048 40.5732C37.5414 38.8952 35.4656 37.0307 33.427 34.9922C21.1213 22.6864 14.782 8.98853 20.7857 2.98482C22.153 1.61751 24.1667 1.29433 25.8572 1.99041C25.1611 2.71136 25.1611 3.85492 25.8696 4.56343C26.5905 5.28437 27.7589 5.28437 28.4675 4.56343C29.1884 3.84249 29.1884 2.67407 28.4675 1.96555C28.455 1.95312 28.4302 1.94069 28.4177 1.92826C28.4053 1.91583 28.4053 1.91583 28.4053 1.9034C26.0063 -0.495593 22.1033 -0.495593 19.7043 1.9034C13.1039 8.50375 18.2375 24.3769 31.1399 37.2793C35.3537 41.4931 39.8907 44.8865 44.3158 47.2979C43.0355 45.1351 41.4569 42.8728 39.6048 40.5732Z" fill="white"/>
<path d="M31.1524 30.766C26.9386 34.9797 23.5452 39.5167 21.1338 43.9418C23.309 42.6491 25.5713 41.0705 27.8584 39.2184C29.5365 37.155 31.401 35.0792 33.4395 33.0407C45.7453 20.7349 59.4432 14.3956 65.4469 20.3993C66.8142 21.7666 67.1374 23.7803 66.4413 25.4708C65.7203 24.7747 64.5768 24.7747 63.8683 25.4832C63.1473 26.2041 63.1473 27.3726 63.8683 28.0811C64.5892 28.802 65.7576 28.802 66.4661 28.0811C66.4786 28.0686 66.491 28.0438 66.5034 28.0313C66.5159 28.0189 66.5159 28.0189 66.5283 28.0189C68.9273 25.6199 68.9273 21.7169 66.5283 19.3179C59.9155 12.73 44.0548 17.8636 31.1524 30.766Z" fill="white"/>
<path d="M25.8074 57.4408C25.0865 58.1618 25.0865 59.3302 25.8074 60.0387C26.5035 60.7348 27.6347 60.7472 28.3556 60.076C29.0144 61.7416 28.6788 63.718 27.3239 65.0604C25.5216 66.8628 22.5881 66.8628 20.7733 65.0604C17.7776 62.0648 17.8522 57.1425 20.2264 51.4371C19.3563 51.7727 18.511 52.071 17.6658 52.3196C16.1244 58.0872 16.6714 63.0965 19.7043 66.1418C22.1033 68.5408 26.0063 68.5408 28.4053 66.1418C30.8043 63.7428 30.8043 59.8398 28.4053 57.4408C27.6968 56.7199 26.5284 56.7199 25.8074 57.4408Z" fill="white"/>
<path d="M43.0107 10.6044C43.7316 9.88349 43.7316 8.71507 43.0107 8.00655C42.3146 7.31047 41.1834 7.29804 40.4625 7.96926C39.8037 6.30364 40.1393 4.32726 41.4942 2.98482C43.2965 1.18246 46.23 1.18246 48.0448 2.98482C51.0405 5.98046 50.9659 10.9028 48.5917 16.6081C49.4618 16.2725 50.3071 15.9742 51.1523 15.7256C52.6937 9.95807 52.1467 4.94876 49.1138 1.9034C46.7148 -0.495593 42.8118 -0.495593 40.4128 1.9034C38.0138 4.3024 38.0138 8.20543 40.4128 10.6044C41.1213 11.3254 42.2897 11.3254 43.0107 10.6044Z" fill="white"/>
<path d="M40.9597 28.8269C39.2816 30.8903 37.4171 32.9661 35.3786 35.0046C23.0729 47.3103 9.37497 53.6497 3.37126 47.6459C2.00396 46.2786 1.68078 44.265 2.37686 42.5745C3.0978 43.2706 4.24136 43.2706 4.94988 42.5621C5.67082 41.8411 5.67082 40.6727 4.94988 39.9642C4.22893 39.2432 3.06051 39.2432 2.352 39.9642C2.33957 39.9766 2.32714 40.0015 2.31471 40.0139C2.30228 40.0263 2.30228 40.0263 2.28985 40.0263C-0.109149 42.4253 -0.109149 46.3284 2.28985 48.7274C8.8902 55.3277 24.7634 50.1941 37.6657 37.2917C41.8795 33.0779 45.2729 28.541 47.6843 24.1159C45.5215 25.3962 43.2593 26.9748 40.9597 28.8269Z" fill="white"/>
<path d="M87.3486 50.8777V50.1319L90.7545 48.4042L100.636 35.5391L90.9906 22.4875L88.0571 20.8592V20.1134H99.7041V20.8592L95.9751 22.587V22.8232L103.433 32.6553L111.165 22.7734V22.587L107.622 20.8592V20.1134H117.404V20.8592L114.471 22.587L105.012 34.756L115.316 48.3172L118.573 50.1319V50.8777H106.69V50.1319L110.096 48.4539V48.2674L102.178 37.59L94.0733 48.2674V48.4539L97.852 50.1319V50.8777H87.3486Z" fill="white"/>
<path d="M132.743 50.8777V50.1319L136.472 48.2674V22.7237L132.743 20.8592V20.1134H144.39V20.8592L140.661 22.7237V33.7243H156.509V22.7237L152.78 20.8592V20.1134H164.427V20.8592L160.698 22.7237V48.2674L164.427 50.1319V50.8777H152.78V50.1319L156.509 48.2674V36.2849H140.661V48.2674L144.39 50.1319V50.8777H132.743Z" fill="white"/>
<path d="M178.97 51.3501C176.92 51.3501 175.13 50.8653 173.588 49.9082C172.047 48.9511 170.854 47.6459 169.996 45.9927C169.138 44.352 168.716 42.4875 168.716 40.3992C168.716 38.3234 169.138 36.4589 169.996 34.8057C170.854 33.1649 172.047 31.8598 173.588 30.8902C175.13 29.9331 176.92 29.4484 178.97 29.4484C181.021 29.4484 182.811 29.9331 184.353 30.8902C185.894 31.8598 187.087 33.1649 187.945 34.8057C188.803 36.4589 189.225 38.3234 189.225 40.3992C189.225 42.4875 188.803 44.352 187.945 45.9927C187.087 47.6459 185.894 48.9511 184.353 49.9082C182.824 50.8653 181.021 51.3501 178.97 51.3501ZM179.629 49.3364C180.872 49.3364 181.892 48.9511 182.699 48.168C183.507 47.3973 184.104 46.3905 184.465 45.1599C184.837 43.9294 185.024 42.6491 185.024 41.3191C185.024 39.6783 184.8 38.0872 184.353 36.5708C183.905 35.0543 183.184 33.8113 182.215 32.8418C181.233 31.8847 179.965 31.3999 178.411 31.3999C177.131 31.3999 176.099 31.7852 175.291 32.5683C174.483 33.3514 173.887 34.3334 173.501 35.5515C173.116 36.7572 172.917 38.05 172.917 39.4173C172.917 41.0704 173.153 42.6491 173.613 44.1655C174.085 45.6944 174.806 46.9374 175.801 47.8945C176.795 48.8641 178.076 49.3364 179.629 49.3364Z" fill="white"/>
<path d="M200.189 51.3501C198.821 51.3501 197.64 50.9399 196.646 50.132C195.652 49.324 195.154 48.1929 195.154 46.7261V32.096H191.338V31.8101L195.304 29.8958L198.61 24.7747H198.896V29.8958H205.049V32.0835H198.896V45.9306C198.896 46.7386 199.256 47.3352 199.965 47.6957C200.673 48.0686 201.519 48.255 202.476 48.255C203.06 48.255 203.619 48.2302 204.129 48.1556C204.639 48.0934 205.086 48.0188 205.459 47.9194H205.596V48.3917C205.285 49.1127 204.676 49.7715 203.756 50.393C202.836 51.0393 201.643 51.3501 200.189 51.3501Z" fill="white"/>
<path d="M217.988 51.3501C214.98 51.3501 212.594 50.4303 210.853 48.603C209.113 46.7758 208.243 44.352 208.243 41.3315C208.243 39.0071 208.703 36.9437 209.623 35.1538C210.543 33.3638 211.748 31.9717 213.252 30.9648C214.757 29.958 216.397 29.4484 218.175 29.4484C220.623 29.4484 222.563 30.306 223.98 32.009C225.397 33.7243 226.105 36.173 226.105 39.3675L225.869 39.6037H211.935C211.96 41.0332 212.246 42.3756 212.78 43.631C213.302 44.8865 214.16 45.9057 215.316 46.6888C216.484 47.4719 218.038 47.8572 220.002 47.8572C221.705 47.8572 223.719 47.2357 226.018 45.9927H226.155V46.4527C225.434 47.7951 224.377 48.9387 222.96 49.8958C221.543 50.8653 219.878 51.3501 217.988 51.3501ZM217.429 31.4869C215.937 31.4869 214.719 32.009 213.775 33.0531C212.83 34.0972 212.246 35.5639 212.022 37.4533H222.55C222.202 35.3402 221.605 33.8237 220.76 32.8915C219.903 31.9592 218.796 31.4869 217.429 31.4869Z" fill="white"/>
<path d="M229.449 50.8778V50.132L232.382 48.6403V21.2321L229.586 18.8083V18.4851L235.825 15.9245H236.099V48.6403L239.032 50.132V50.8778H229.449Z" fill="white"/>
</svg>
