<svg width="11" height="10" viewBox="0 0 11 10" fill="none" xmlns="http://www.w3.org/2000/svg">
<path fill-rule="evenodd" clip-rule="evenodd" d="M5.49608 5.93898L9.2656 9.70876C9.39127 9.83015 9.55959 9.89732 9.7343 9.8958C9.90902 9.89428 10.0761 9.8242 10.1997 9.70065C10.3232 9.57709 10.3933 9.40995 10.3948 9.23523C10.3963 9.0605 10.3292 8.89217 10.2078 8.76648L6.43829 4.9967L10.2078 1.22692C10.3292 1.10124 10.3963 0.932909 10.3948 0.758183C10.3933 0.583458 10.3232 0.416318 10.1997 0.292764C10.0761 0.169209 9.90902 0.0991254 9.7343 0.0976071C9.55959 0.0960887 9.39127 0.163257 9.2656 0.284646L5.49608 4.05443L1.72657 0.284646C1.60033 0.166258 1.43299 0.101632 1.25995 0.104442C1.08691 0.107252 0.921755 0.177278 0.799425 0.299702C0.677096 0.422127 0.607192 0.587345 0.604504 0.760398C0.601817 0.93345 0.666557 1.10076 0.785026 1.22692L4.55387 4.9967L0.78436 8.76648C0.720717 8.82796 0.669954 8.90149 0.635031 8.98279C0.600109 9.0641 0.581727 9.15154 0.580958 9.24002C0.580189 9.32851 0.597048 9.41625 0.630553 9.49815C0.664057 9.58005 0.713535 9.65445 0.7761 9.71702C0.838665 9.77959 0.913064 9.82907 0.994955 9.86258C1.07685 9.89609 1.16459 9.91295 1.25307 9.91218C1.34154 9.91141 1.42898 9.89303 1.51028 9.8581C1.59158 9.82318 1.6651 9.77241 1.72657 9.70876L5.49608 5.93898Z" fill="#131313"/>
</svg>
